<?xml version="1.0" encoding="UTF-8" standalone="no"?>
<!DOCTYPE svg PUBLIC "-//W3C//DTD SVG 1.1//EN" "http://www.w3.org/Graphics/SVG/1.1/DTD/svg11.dtd">
<!-- Gegenereerd door Microsoft Visio, SVG Export origemu_logo.svg Pagina-1 -->
<svg xmlns="http://www.w3.org/2000/svg" xmlns:xlink="http://www.w3.org/1999/xlink" xmlns:ev="http://www.w3.org/2001/xml-events"
		xmlns:v="http://schemas.microsoft.com/visio/2003/SVGExtensions/" width="4in" height="4.00787in" viewBox="0 0 288 288.567"
		xml:space="preserve" color-interpolation-filters="sRGB" class="st5">
	<v:documentProperties v:langID="1033" v:metric="true" v:viewMarkup="false">
		<v:userDefs>
			<v:ud v:nameU="msvConvertTheme"/>
		</v:userDefs>
	</v:documentProperties>

	<style type="text/css">
	<![CDATA[
		.st1 {fill:#00ae4f;stroke:none;stroke-linecap:round;stroke-linejoin:round;stroke-width:2.83465}
		.st2 {fill:#e72d18;stroke:none;stroke-linecap:round;stroke-linejoin:round;stroke-width:2.83465}
		.st3 {fill:#0070c0;stroke:none;stroke-linecap:round;stroke-linejoin:round;stroke-width:2.83465}
		.st4 {fill:#ffc000;stroke:none;stroke-linecap:round;stroke-linejoin:round;stroke-width:2.83465}
		.st5 {fill:none;fill-rule:evenodd;font-size:12px;overflow:visible;stroke-linecap:square;stroke-miterlimit:3}
	]]>
	</style>

	<g v:mID="0" v:index="1" v:groupContext="foregroundPage">
		<title>Pagina-1</title>
		<v:pageProperties v:drawingScale="0.0393701" v:pageScale="0.0393701" v:drawingUnits="24" v:shadowOffsetX="8.50394"
				v:shadowOffsetY="-8.50394"/>
		<g id="shape11-1" v:mID="11" v:groupContext="shape" transform="translate(1.41732,-144.283)">
			<title>Blad.11</title>
			<path d="M103.89 217.13 A32.5984 32.5984 -180 1 0 38.69 217.13 A32.5984 32.5984 -180 1 0 103.89 217.13 ZM0 288.57 L142.58
						 288.57 L142.58 145.7 L0 145.7 L0 288.57 Z" class="st1"/>
		</g>
		<g id="shape12-3" v:mID="12" v:groupContext="shape" transform="translate(144,-144.283)">
			<title>Blad.12</title>
			<path d="M103.89 217.13 A32.5984 32.5984 -180 1 0 38.69 217.13 A32.5984 32.5984 -180 1 0 103.89 217.13 ZM0 288.57 L142.58
						 288.57 L142.58 145.7 L0 145.7 L0 288.57 Z" class="st2"/>
		</g>
		<g id="shape13-5" v:mID="13" v:groupContext="shape" transform="translate(1.41732,-1.41732)">
			<title>Blad.13</title>
			<path d="M103.89 217.13 A32.5984 32.5984 -180 1 0 38.69 217.13 A32.5984 32.5984 -180 1 0 103.89 217.13 ZM0 288.57 L142.58
						 288.57 L142.58 145.7 L0 145.7 L0 288.57 Z" class="st3"/>
		</g>
		<g id="shape14-7" v:mID="14" v:groupContext="shape" transform="translate(144,-1.41732)">
			<title>Blad.14</title>
			<path d="M103.89 217.13 A32.5984 32.5984 -180 1 0 38.69 217.13 A32.5984 32.5984 -180 1 0 103.89 217.13 ZM0 288.57 L142.58
						 288.57 L142.58 145.7 L0 145.7 L0 288.57 Z" class="st4"/>
		</g>
	</g>
</svg>
